<svg xmlns="http://www.w3.org/2000/svg" width="1920" height="1610" style="border: 1px solid #cccccc;">
<line x1="20.000000" y1="10.000000" x2="188.000000" y2="10.000000" stroke="#31a354" stroke-width="3.000000" />
<text x="193.000000" y="16.000000" font-size="12" font-family="Arial;">0.0539101</text>
<line x1="1683.096357" y1="30.000000" x2="1689.457769" y2="30.000000" stroke="#ff0000" stroke-width="3.000000" />
<text x="1694.457769" y="34.000000" font-size="12" font-family="Arial;">Opuntia_virus_X_KU854931</text>
<line x1="1683.096357" y1="50.000000" x2="1698.705768" y2="50.000000" stroke="#ff0000" stroke-width="3.000000" />
<text x="1703.705768" y="54.000000" font-size="12" font-family="Arial;">Opuntia_virus_X_KY348771</text>
<line x1="1683.096357" y1="30.000000" x2="1683.096357" y2="50.000000" stroke="#ff0000" stroke-width="3.000000" />
<circle cx="1683.096357" cy="40.000000" r="0.000000" fill="#ff0000" stroke="#ff0000" />
<line x1="1638.566020" y1="40.000000" x2="1683.096357" y2="40.000000" stroke="#ff0000" stroke-width="3.000000" />

<line x1="1638.566020" y1="70.000000" x2="1700.000000" y2="70.000000" stroke="#ff0000" stroke-width="3.000000" />
<text x="1705.000000" y="74.000000" font-size="12" font-family="Arial;">Opuntia_virus_Strain_CC10</text>
<line x1="1638.566020" y1="40.000000" x2="1638.566020" y2="70.000000" stroke="#ff0000" stroke-width="3.000000" />
<circle cx="1638.566020" cy="55.000000" r="0.000000" fill="#ff0000" stroke="#ff0000" />
<line x1="20.000000" y1="55.000000" x2="1638.566020" y2="55.000000" stroke="#31a354" stroke-width="3.000000" />

<line x1="879.124817" y1="90.000000" x2="1239.634482" y2="90.000000" stroke="#ff0000" stroke-width="3.000000" />
<text x="1244.634482" y="94.000000" font-size="12" font-family="Arial;">Schlumbergera_virus_X_KU854929</text>
<line x1="1169.110368" y1="110.000000" x2="1238.267288" y2="110.000000" stroke="#ff0000" stroke-width="3.000000" />
<text x="1243.267288" y="114.000000" font-size="12" font-family="Arial;">Schlumbergera_virus_X_KP090203</text>
<line x1="1169.110368" y1="130.000000" x2="1258.193836" y2="130.000000" stroke="#ff0000" stroke-width="3.000000" />
<text x="1263.193836" y="134.000000" font-size="12" font-family="Arial;">Schlumbergera_virus_X_Strain_K11</text>
<line x1="1169.110368" y1="110.000000" x2="1169.110368" y2="130.000000" stroke="#ff0000" stroke-width="3.000000" />
<circle cx="1169.110368" cy="120.000000" r="0.000000" fill="#ff0000" stroke="#ff0000" />
<line x1="1133.252691" y1="120.000000" x2="1169.110368" y2="120.000000" stroke="#ff0000" stroke-width="3.000000" />

<line x1="1133.252691" y1="150.000000" x2="1249.125153" y2="150.000000" stroke="#ff0000" stroke-width="3.000000" />
<text x="1254.125153" y="154.000000" font-size="12" font-family="Arial;">SRR11190802_Plant_DH-1_NC_011659</text>
<line x1="1133.252691" y1="120.000000" x2="1133.252691" y2="150.000000" stroke="#ff0000" stroke-width="3.000000" />
<circle cx="1133.252691" cy="135.000000" r="0.000000" fill="#ff0000" stroke="#ff0000" />
<line x1="1083.933446" y1="135.000000" x2="1133.252691" y2="135.000000" stroke="#ff0000" stroke-width="3.000000" />

<line x1="1129.931856" y1="170.000000" x2="1182.719940" y2="170.000000" stroke="#ff0000" stroke-width="3.000000" />
<text x="1187.719940" y="174.000000" font-size="12" font-family="Arial;">SRR11603183_GW-peel-2_NC_011659</text>
<line x1="1129.931856" y1="190.000000" x2="1129.931856" y2="190.000000" stroke="#ff0000" stroke-width="3.000000" />
<text x="1134.931856" y="194.000000" font-size="12" font-family="Arial;">SRR11603189_RR-peel-3_NC_011659</text>
<line x1="1129.931856" y1="170.000000" x2="1129.931856" y2="190.000000" stroke="#ff0000" stroke-width="3.000000" />
<circle cx="1129.931856" cy="180.000000" r="0.000000" fill="#ff0000" stroke="#ff0000" />
<line x1="1083.933446" y1="180.000000" x2="1129.931856" y2="180.000000" stroke="#ff0000" stroke-width="3.000000" />

<line x1="1083.933446" y1="135.000000" x2="1083.933446" y2="180.000000" stroke="#ff0000" stroke-width="3.000000" />
<circle cx="1083.933446" cy="157.500000" r="0.000000" fill="#ff0000" stroke="#ff0000" />
<line x1="1019.221851" y1="157.500000" x2="1083.933446" y2="157.500000" stroke="#ff0000" stroke-width="3.000000" />

<line x1="1019.221851" y1="210.000000" x2="1019.221851" y2="210.000000" stroke="#ff0000" stroke-width="3.000000" />
<text x="1024.221851" y="214.000000" font-size="12" font-family="Arial;">SRR11603187_RR-pulp-2_NC_011659</text>
<line x1="1019.221851" y1="157.500000" x2="1019.221851" y2="210.000000" stroke="#ff0000" stroke-width="3.000000" />
<circle cx="1019.221851" cy="183.750000" r="0.000000" fill="#ff0000" stroke="#ff0000" />
<line x1="1012.093587" y1="183.750000" x2="1019.221851" y2="183.750000" stroke="#ff0000" stroke-width="3.000000" />

<line x1="1012.093587" y1="230.000000" x2="1012.093587" y2="230.000000" stroke="#ff0000" stroke-width="3.000000" />
<text x="1017.093587" y="234.000000" font-size="12" font-family="Arial;">SRR11603184_GW-peel-1_NC_011659</text>
<line x1="1012.093587" y1="183.750000" x2="1012.093587" y2="230.000000" stroke="#ff0000" stroke-width="3.000000" />
<circle cx="1012.093587" cy="206.875000" r="0.000000" fill="#ff0000" stroke="#ff0000" />
<line x1="924.308737" y1="206.875000" x2="1012.093587" y2="206.875000" stroke="#ff0000" stroke-width="3.000000" />

<line x1="924.308737" y1="250.000000" x2="924.308737" y2="250.000000" stroke="#ff0000" stroke-width="3.000000" />
<text x="929.308737" y="254.000000" font-size="12" font-family="Arial;">SRR11190798_Plant_DH-3_NC_011659</text>
<line x1="924.308737" y1="206.875000" x2="924.308737" y2="250.000000" stroke="#ff0000" stroke-width="3.000000" />
<circle cx="924.308737" cy="228.437500" r="0.000000" fill="#ff0000" stroke="#ff0000" />
<line x1="905.300918" y1="228.437500" x2="924.308737" y2="228.437500" stroke="#ff0000" stroke-width="3.000000" />

<line x1="905.300918" y1="270.000000" x2="905.300918" y2="270.000000" stroke="#ff0000" stroke-width="3.000000" />
<text x="910.300918" y="274.000000" font-size="12" font-family="Arial;">SRR11190801_Plant_DH-2_NC_011659</text>
<line x1="905.300918" y1="228.437500" x2="905.300918" y2="270.000000" stroke="#ff0000" stroke-width="3.000000" />
<circle cx="905.300918" cy="249.218750" r="0.000000" fill="#ff0000" stroke="#ff0000" />
<line x1="879.124817" y1="249.218750" x2="905.300918" y2="249.218750" stroke="#ff0000" stroke-width="3.000000" />

<line x1="879.124817" y1="90.000000" x2="879.124817" y2="249.218750" stroke="#ff0000" stroke-width="3.000000" />
<circle cx="879.124817" cy="169.609375" r="0.000000" fill="#ff0000" stroke="#ff0000" />
<line x1="254.164573" y1="169.609375" x2="879.124817" y2="169.609375" stroke="#31a354" stroke-width="3.000000" />

<line x1="1266.206863" y1="290.000000" x2="1320.470223" y2="290.000000" stroke="#ff0000" stroke-width="3.000000" />
<text x="1325.470223" y="294.000000" font-size="12" font-family="Arial;">MG210801</text>
<line x1="1266.206863" y1="310.000000" x2="1266.206863" y2="310.000000" stroke="#ff0000" stroke-width="3.000000" />
<text x="1271.206863" y="314.000000" font-size="12" font-family="Arial;">SRR11190800_Plant_BSJ-2_NC_024458</text>
<line x1="1266.206863" y1="290.000000" x2="1266.206863" y2="310.000000" stroke="#ff0000" stroke-width="3.000000" />
<circle cx="1266.206863" cy="300.000000" r="0.000000" fill="#ff0000" stroke="#ff0000" />
<line x1="1261.123834" y1="300.000000" x2="1266.206863" y2="300.000000" stroke="#ff0000" stroke-width="3.000000" />

<line x1="1261.123834" y1="330.000000" x2="1261.127036" y2="330.000000" stroke="#ff0000" stroke-width="3.000000" />
<text x="1266.127036" y="334.000000" font-size="12" font-family="Arial;">SRR11190791_Plant_BSJ-1_NC_024458</text>
<line x1="1261.123834" y1="300.000000" x2="1261.123834" y2="330.000000" stroke="#ff0000" stroke-width="3.000000" />
<circle cx="1261.123834" cy="315.000000" r="0.000000" fill="#ff0000" stroke="#ff0000" />
<line x1="1234.714121" y1="315.000000" x2="1261.123834" y2="315.000000" stroke="#ff0000" stroke-width="3.000000" />

<line x1="1240.142237" y1="350.000000" x2="1262.774295" y2="350.000000" stroke="#ff0000" stroke-width="3.000000" />
<text x="1267.774295" y="354.000000" font-size="12" font-family="Arial;">SRR11190793_Plant_BR-2_NC_024458</text>
<line x1="1253.788242" y1="370.000000" x2="1253.788242" y2="370.000000" stroke="#ff0000" stroke-width="3.000000" />
<text x="1258.788242" y="374.000000" font-size="12" font-family="Arial;">SRR11190797_Plant_FR-1_NC_024458</text>
<line x1="1253.788242" y1="390.000000" x2="1255.866005" y2="390.000000" stroke="#ff0000" stroke-width="3.000000" />
<text x="1260.866005" y="394.000000" font-size="12" font-family="Arial;">SRR11190796_Plant_FR-2_NC_024458</text>
<line x1="1253.788242" y1="370.000000" x2="1253.788242" y2="390.000000" stroke="#ff0000" stroke-width="3.000000" />
<circle cx="1253.788242" cy="380.000000" r="0.000000" fill="#ff0000" stroke="#ff0000" />
<line x1="1240.142237" y1="380.000000" x2="1253.788242" y2="380.000000" stroke="#ff0000" stroke-width="3.000000" />

<line x1="1240.142237" y1="350.000000" x2="1240.142237" y2="380.000000" stroke="#ff0000" stroke-width="3.000000" />
<circle cx="1240.142237" cy="365.000000" r="0.000000" fill="#ff0000" stroke="#ff0000" />
<line x1="1234.714121" y1="365.000000" x2="1240.142237" y2="365.000000" stroke="#ff0000" stroke-width="3.000000" />

<line x1="1234.714121" y1="315.000000" x2="1234.714121" y2="365.000000" stroke="#ff0000" stroke-width="3.000000" />
<circle cx="1234.714121" cy="340.000000" r="0.000000" fill="#ff0000" stroke="#ff0000" />
<line x1="1230.082854" y1="340.000000" x2="1234.714121" y2="340.000000" stroke="#ff0000" stroke-width="3.000000" />

<line x1="1242.703264" y1="410.000000" x2="1255.588725" y2="410.000000" stroke="#ff0000" stroke-width="3.000000" />
<text x="1260.588725" y="414.000000" font-size="12" font-family="Arial;">Pitaya_virus_X</text>
<line x1="1242.703264" y1="430.000000" x2="1260.912537" y2="430.000000" stroke="#ff0000" stroke-width="3.000000" />
<text x="1265.912537" y="434.000000" font-size="12" font-family="Arial;">SRR11190795_Plant_FR-3_NC_024458</text>
<line x1="1242.703264" y1="410.000000" x2="1242.703264" y2="430.000000" stroke="#ff0000" stroke-width="3.000000" />
<circle cx="1242.703264" cy="420.000000" r="0.000000" fill="#ff0000" stroke="#ff0000" />
<line x1="1230.082854" y1="420.000000" x2="1242.703264" y2="420.000000" stroke="#ff0000" stroke-width="3.000000" />

<line x1="1230.082854" y1="340.000000" x2="1230.082854" y2="420.000000" stroke="#ff0000" stroke-width="3.000000" />
<circle cx="1230.082854" cy="380.000000" r="0.000000" fill="#ff0000" stroke="#ff0000" />
<line x1="1226.077638" y1="380.000000" x2="1230.082854" y2="380.000000" stroke="#ff0000" stroke-width="3.000000" />

<line x1="1247.700684" y1="450.000000" x2="1247.700684" y2="450.000000" stroke="#ff0000" stroke-width="3.000000" />
<text x="1252.700684" y="454.000000" font-size="12" font-family="Arial;">SRR11603187_RR-pulp-2_NC_024458</text>
<line x1="1247.700684" y1="470.000000" x2="1249.189375" y2="470.000000" stroke="#ff0000" stroke-width="3.000000" />
<text x="1254.189375" y="474.000000" font-size="12" font-family="Arial;">SRR11603189_RR-peel-3_NC_024458</text>
<line x1="1247.700684" y1="450.000000" x2="1247.700684" y2="470.000000" stroke="#ff0000" stroke-width="3.000000" />
<circle cx="1247.700684" cy="460.000000" r="0.000000" fill="#ff0000" stroke="#ff0000" />
<line x1="1244.242826" y1="460.000000" x2="1247.700684" y2="460.000000" stroke="#ff0000" stroke-width="3.000000" />

<line x1="1248.383881" y1="490.000000" x2="1248.508739" y2="490.000000" stroke="#ff0000" stroke-width="3.000000" />
<text x="1253.508739" y="494.000000" font-size="12" font-family="Arial;">SRR11603190_RR-peel-2_NC_024458</text>
<line x1="1248.383881" y1="510.000000" x2="1248.383881" y2="510.000000" stroke="#ff0000" stroke-width="3.000000" />
<text x="1253.383881" y="514.000000" font-size="12" font-family="Arial;">SRR11603186_RR-pulp-3_NC_024458</text>
<line x1="1248.383881" y1="490.000000" x2="1248.383881" y2="510.000000" stroke="#ff0000" stroke-width="3.000000" />
<circle cx="1248.383881" cy="500.000000" r="0.000000" fill="#ff0000" stroke="#ff0000" />
<line x1="1244.242826" y1="500.000000" x2="1248.383881" y2="500.000000" stroke="#ff0000" stroke-width="3.000000" />

<line x1="1244.242826" y1="460.000000" x2="1244.242826" y2="500.000000" stroke="#ff0000" stroke-width="3.000000" />
<circle cx="1244.242826" cy="480.000000" r="0.000000" fill="#ff0000" stroke="#ff0000" />
<line x1="1238.795213" y1="480.000000" x2="1244.242826" y2="480.000000" stroke="#ff0000" stroke-width="3.000000" />

<line x1="1238.795213" y1="530.000000" x2="1238.795213" y2="530.000000" stroke="#ff0000" stroke-width="3.000000" />
<text x="1243.795213" y="534.000000" font-size="12" font-family="Arial;">SRR11603191_RR-peel-1_NC_024458</text>
<line x1="1238.795213" y1="480.000000" x2="1238.795213" y2="530.000000" stroke="#ff0000" stroke-width="3.000000" />
<circle cx="1238.795213" cy="505.000000" r="0.000000" fill="#ff0000" stroke="#ff0000" />
<line x1="1226.077638" y1="505.000000" x2="1238.795213" y2="505.000000" stroke="#ff0000" stroke-width="3.000000" />

<line x1="1226.077638" y1="380.000000" x2="1226.077638" y2="505.000000" stroke="#ff0000" stroke-width="3.000000" />
<circle cx="1226.077638" cy="442.500000" r="0.000000" fill="#ff0000" stroke="#ff0000" />
<line x1="1218.429004" y1="442.500000" x2="1226.077638" y2="442.500000" stroke="#ff0000" stroke-width="3.000000" />

<line x1="1218.429004" y1="550.000000" x2="1218.429004" y2="550.000000" stroke="#ff0000" stroke-width="3.000000" />
<text x="1223.429004" y="554.000000" font-size="12" font-family="Arial;">SRR11190801_Plant_DH-2_NC_024458</text>
<line x1="1218.429004" y1="442.500000" x2="1218.429004" y2="550.000000" stroke="#ff0000" stroke-width="3.000000" />
<circle cx="1218.429004" cy="496.250000" r="0.000000" fill="#ff0000" stroke="#ff0000" />
<line x1="1203.949205" y1="496.250000" x2="1218.429004" y2="496.250000" stroke="#ff0000" stroke-width="3.000000" />

<line x1="1203.949205" y1="570.000000" x2="1203.949205" y2="570.000000" stroke="#ff0000" stroke-width="3.000000" />
<text x="1208.949205" y="574.000000" font-size="12" font-family="Arial;">SRR11190798_Plant_DH-3_NC_024458</text>
<line x1="1203.949205" y1="496.250000" x2="1203.949205" y2="570.000000" stroke="#ff0000" stroke-width="3.000000" />
<circle cx="1203.949205" cy="533.125000" r="0.000000" fill="#ff0000" stroke="#ff0000" />
<line x1="1195.346561" y1="533.125000" x2="1203.949205" y2="533.125000" stroke="#ff0000" stroke-width="3.000000" />

<line x1="1195.346561" y1="590.000000" x2="1195.346561" y2="590.000000" stroke="#ff0000" stroke-width="3.000000" />
<text x="1200.346561" y="594.000000" font-size="12" font-family="Arial;">SRR11603183_GW-peel-2_NC_024458</text>
<line x1="1195.346561" y1="533.125000" x2="1195.346561" y2="590.000000" stroke="#ff0000" stroke-width="3.000000" />
<circle cx="1195.346561" cy="561.562500" r="0.000000" fill="#ff0000" stroke="#ff0000" />
<line x1="1191.136642" y1="561.562500" x2="1195.346561" y2="561.562500" stroke="#ff0000" stroke-width="3.000000" />

<line x1="1191.136642" y1="610.000000" x2="1191.136642" y2="610.000000" stroke="#ff0000" stroke-width="3.000000" />
<text x="1196.136642" y="614.000000" font-size="12" font-family="Arial;">SRR11603182_GW-peel-3_NC_024458</text>
<line x1="1191.136642" y1="561.562500" x2="1191.136642" y2="610.000000" stroke="#ff0000" stroke-width="3.000000" />
<circle cx="1191.136642" cy="585.781250" r="0.000000" fill="#ff0000" stroke="#ff0000" />
<line x1="1187.737370" y1="585.781250" x2="1191.136642" y2="585.781250" stroke="#ff0000" stroke-width="3.000000" />

<line x1="1187.737370" y1="630.000000" x2="1187.737370" y2="630.000000" stroke="#ff0000" stroke-width="3.000000" />
<text x="1192.737370" y="634.000000" font-size="12" font-family="Arial;">SRR11603184_GW-peel-1_NC_024458</text>
<line x1="1187.737370" y1="585.781250" x2="1187.737370" y2="630.000000" stroke="#ff0000" stroke-width="3.000000" />
<circle cx="1187.737370" cy="607.890625" r="0.000000" fill="#ff0000" stroke="#ff0000" />
<line x1="1178.395760" y1="607.890625" x2="1187.737370" y2="607.890625" stroke="#ff0000" stroke-width="3.000000" />

<line x1="1178.395760" y1="650.000000" x2="1178.395760" y2="650.000000" stroke="#ff0000" stroke-width="3.000000" />
<text x="1183.395760" y="654.000000" font-size="12" font-family="Arial;">SRR11190802_Plant_DH-1_NC_024458</text>
<line x1="1178.395760" y1="607.890625" x2="1178.395760" y2="650.000000" stroke="#ff0000" stroke-width="3.000000" />
<circle cx="1178.395760" cy="628.945312" r="0.000000" fill="#ff0000" stroke="#ff0000" />
<line x1="319.633415" y1="628.945312" x2="1178.395760" y2="628.945312" stroke="#31a354" stroke-width="3.000000" />

<line x1="1461.231245" y1="670.000000" x2="1513.467394" y2="670.000000" stroke="#ff0000" stroke-width="3.000000" />
<text x="1518.467394" y="674.000000" font-size="12" font-family="Arial;">Zygocactus_virus_X_JF930326.1</text>
<line x1="1493.698262" y1="690.000000" x2="1502.456274" y2="690.000000" stroke="#ff0000" stroke-width="3.000000" />
<text x="1507.456274" y="694.000000" font-size="12" font-family="Arial;">SRR11603191_RR-peel-1_NC_006059</text>
<line x1="1496.179412" y1="710.000000" x2="1496.179412" y2="710.000000" stroke="#ff0000" stroke-width="3.000000" />
<text x="1501.179412" y="714.000000" font-size="12" font-family="Arial;">SRR11603190_RR-peel-2_NC_006059</text>
<line x1="1503.877348" y1="730.000000" x2="1506.931564" y2="730.000000" stroke="#ff0000" stroke-width="3.000000" />
<text x="1511.931564" y="734.000000" font-size="12" font-family="Arial;">SRR11603187_RR-pulp-2_NC_006059</text>
<line x1="1503.877348" y1="750.000000" x2="1503.877348" y2="750.000000" stroke="#ff0000" stroke-width="3.000000" />
<text x="1508.877348" y="754.000000" font-size="12" font-family="Arial;">SRR11603189_RR-peel-3_NC_006059</text>
<line x1="1503.877348" y1="730.000000" x2="1503.877348" y2="750.000000" stroke="#ff0000" stroke-width="3.000000" />
<circle cx="1503.877348" cy="740.000000" r="0.000000" fill="#ff0000" stroke="#ff0000" />
<line x1="1496.179412" y1="740.000000" x2="1503.877348" y2="740.000000" stroke="#ff0000" stroke-width="3.000000" />

<line x1="1496.179412" y1="710.000000" x2="1496.179412" y2="740.000000" stroke="#ff0000" stroke-width="3.000000" />
<circle cx="1496.179412" cy="725.000000" r="0.000000" fill="#ff0000" stroke="#ff0000" />
<line x1="1496.115383" y1="725.000000" x2="1496.179412" y2="725.000000" stroke="#ff0000" stroke-width="3.000000" />

<line x1="1496.115383" y1="770.000000" x2="1496.163405" y2="770.000000" stroke="#ff0000" stroke-width="3.000000" />
<text x="1501.163405" y="774.000000" font-size="12" font-family="Arial;">SRR11603186_RR-pulp-3_NC_006059</text>
<line x1="1496.115383" y1="725.000000" x2="1496.115383" y2="770.000000" stroke="#ff0000" stroke-width="3.000000" />
<circle cx="1496.115383" cy="747.500000" r="0.000000" fill="#ff0000" stroke="#ff0000" />
<line x1="1493.698262" y1="747.500000" x2="1496.115383" y2="747.500000" stroke="#ff0000" stroke-width="3.000000" />

<line x1="1493.698262" y1="690.000000" x2="1493.698262" y2="747.500000" stroke="#ff0000" stroke-width="3.000000" />
<circle cx="1493.698262" cy="718.750000" r="0.000000" fill="#ff0000" stroke="#ff0000" />
<line x1="1461.231245" y1="718.750000" x2="1493.698262" y2="718.750000" stroke="#ff0000" stroke-width="3.000000" />

<line x1="1461.231245" y1="670.000000" x2="1461.231245" y2="718.750000" stroke="#ff0000" stroke-width="3.000000" />
<circle cx="1461.231245" cy="694.375000" r="0.000000" fill="#ff0000" stroke="#ff0000" />
<line x1="1446.299396" y1="694.375000" x2="1461.231245" y2="694.375000" stroke="#ff0000" stroke-width="3.000000" />

<line x1="1446.299396" y1="790.000000" x2="1541.363716" y2="790.000000" stroke="#ff0000" stroke-width="3.000000" />
<text x="1546.363716" y="794.000000" font-size="12" font-family="Arial;">Zygocactus_virus_X_Strain_B1</text>
<line x1="1446.299396" y1="694.375000" x2="1446.299396" y2="790.000000" stroke="#ff0000" stroke-width="3.000000" />
<circle cx="1446.299396" cy="742.187500" r="0.000000" fill="#ff0000" stroke="#ff0000" />
<line x1="1439.410603" y1="742.187500" x2="1446.299396" y2="742.187500" stroke="#ff0000" stroke-width="3.000000" />

<line x1="1603.484383" y1="810.000000" x2="1603.484383" y2="810.000000" stroke="#ff0000" stroke-width="3.000000" />
<text x="1608.484383" y="814.000000" font-size="12" font-family="Arial;">KM288842</text>
<line x1="1603.484383" y1="830.000000" x2="1745.924007" y2="830.000000" stroke="#ff0000" stroke-width="3.000000" />
<text x="1750.924007" y="834.000000" font-size="12" font-family="Arial;">KM288843</text>
<line x1="1603.484383" y1="810.000000" x2="1603.484383" y2="830.000000" stroke="#ff0000" stroke-width="3.000000" />
<circle cx="1603.484383" cy="820.000000" r="0.000000" fill="#ff0000" stroke="#ff0000" />
<line x1="1439.410603" y1="820.000000" x2="1603.484383" y2="820.000000" stroke="#ff0000" stroke-width="3.000000" />

<line x1="1439.410603" y1="742.187500" x2="1439.410603" y2="820.000000" stroke="#ff0000" stroke-width="3.000000" />
<circle cx="1439.410603" cy="781.093750" r="0.000000" fill="#ff0000" stroke="#ff0000" />
<line x1="1433.872932" y1="781.093750" x2="1439.410603" y2="781.093750" stroke="#ff0000" stroke-width="3.000000" />

<line x1="1433.872932" y1="850.000000" x2="1479.531440" y2="850.000000" stroke="#ff0000" stroke-width="3.000000" />
<text x="1484.531440" y="854.000000" font-size="12" font-family="Arial;">KM288844</text>
<line x1="1433.872932" y1="781.093750" x2="1433.872932" y2="850.000000" stroke="#ff0000" stroke-width="3.000000" />
<circle cx="1433.872932" cy="815.546875" r="0.000000" fill="#ff0000" stroke="#ff0000" />
<line x1="1413.241577" y1="815.546875" x2="1433.872932" y2="815.546875" stroke="#ff0000" stroke-width="3.000000" />

<line x1="1453.604030" y1="870.000000" x2="1457.786576" y2="870.000000" stroke="#ff0000" stroke-width="3.000000" />
<text x="1462.786576" y="874.000000" font-size="12" font-family="Arial;">SRR11190801_Plant_DH-2_NC_006059</text>
<line x1="1453.604030" y1="890.000000" x2="1453.604030" y2="890.000000" stroke="#ff0000" stroke-width="3.000000" />
<text x="1458.604030" y="894.000000" font-size="12" font-family="Arial;">SRR11190798_Plant_DH-3_NC_006059</text>
<line x1="1453.604030" y1="870.000000" x2="1453.604030" y2="890.000000" stroke="#ff0000" stroke-width="3.000000" />
<circle cx="1453.604030" cy="880.000000" r="0.000000" fill="#ff0000" stroke="#ff0000" />
<line x1="1413.241577" y1="880.000000" x2="1453.604030" y2="880.000000" stroke="#ff0000" stroke-width="3.000000" />

<line x1="1413.241577" y1="815.546875" x2="1413.241577" y2="880.000000" stroke="#ff0000" stroke-width="3.000000" />
<circle cx="1413.241577" cy="847.773438" r="0.000000" fill="#ff0000" stroke="#ff0000" />
<line x1="1410.018291" y1="847.773438" x2="1413.241577" y2="847.773438" stroke="#ff0000" stroke-width="3.000000" />

<line x1="1428.502859" y1="910.000000" x2="1428.502859" y2="910.000000" stroke="#ff0000" stroke-width="3.000000" />
<text x="1433.502859" y="914.000000" font-size="12" font-family="Arial;">SRR11190797_Plant_FR-1_NC_006059</text>
<line x1="1428.502859" y1="930.000000" x2="1490.686178" y2="930.000000" stroke="#ff0000" stroke-width="3.000000" />
<text x="1495.686178" y="934.000000" font-size="12" font-family="Arial;">SRR11190802_Plant_DH-1_NC_006059</text>
<line x1="1428.502859" y1="910.000000" x2="1428.502859" y2="930.000000" stroke="#ff0000" stroke-width="3.000000" />
<circle cx="1428.502859" cy="920.000000" r="0.000000" fill="#ff0000" stroke="#ff0000" />
<line x1="1410.018291" y1="920.000000" x2="1428.502859" y2="920.000000" stroke="#ff0000" stroke-width="3.000000" />

<line x1="1410.018291" y1="847.773438" x2="1410.018291" y2="920.000000" stroke="#ff0000" stroke-width="3.000000" />
<circle cx="1410.018291" cy="883.886719" r="0.000000" fill="#ff0000" stroke="#ff0000" />
<line x1="1400.235868" y1="883.886719" x2="1410.018291" y2="883.886719" stroke="#ff0000" stroke-width="3.000000" />

<line x1="1400.235868" y1="950.000000" x2="1400.235868" y2="950.000000" stroke="#ff0000" stroke-width="3.000000" />
<text x="1405.235868" y="954.000000" font-size="12" font-family="Arial;">SRR11190796_Plant_FR-2_NC_006059</text>
<line x1="1400.235868" y1="883.886719" x2="1400.235868" y2="950.000000" stroke="#ff0000" stroke-width="3.000000" />
<circle cx="1400.235868" cy="916.943359" r="0.000000" fill="#ff0000" stroke="#ff0000" />
<line x1="1179.719478" y1="916.943359" x2="1400.235868" y2="916.943359" stroke="#31a354" stroke-width="3.000000" />

<line x1="1179.719478" y1="970.000000" x2="1566.998319" y2="970.000000" stroke="#31a354" stroke-width="3.000000" />
<text x="1571.998319" y="974.000000" font-size="12" font-family="Arial;">KM288845</text>
<line x1="1179.719478" y1="916.943359" x2="1179.719478" y2="970.000000" stroke="#31a354" stroke-width="3.000000" />
<circle cx="1179.719478" cy="943.471680" r="0.000000" fill="#31a354" stroke="#31a354" />
<line x1="676.295473" y1="943.471680" x2="1179.719478" y2="943.471680" stroke="#31a354" stroke-width="3.000000" />

<line x1="1455.241044" y1="990.000000" x2="1491.922591" y2="990.000000" stroke="#ff0000" stroke-width="3.000000" />
<text x="1496.922591" y="994.000000" font-size="12" font-family="Arial;">Cactus_virus_X_JF937699.1</text>
<line x1="1561.978136" y1="1010.000000" x2="1677.915555" y2="1010.000000" stroke="#ff0000" stroke-width="3.000000" />
<text x="1682.915555" y="1014.000000" font-size="12" font-family="Arial;">Cactus_virus_X_KM288847.1</text>
<line x1="1561.978136" y1="1030.000000" x2="1561.978136" y2="1030.000000" stroke="#ff0000" stroke-width="3.000000" />
<text x="1566.978136" y="1034.000000" font-size="12" font-family="Arial;">Cactus_virus_X_SCM51431</text>
<line x1="1561.978136" y1="1010.000000" x2="1561.978136" y2="1030.000000" stroke="#ff0000" stroke-width="3.000000" />
<circle cx="1561.978136" cy="1020.000000" r="0.000000" fill="#ff0000" stroke="#ff0000" />
<line x1="1455.241044" y1="1020.000000" x2="1561.978136" y2="1020.000000" stroke="#ff0000" stroke-width="3.000000" />

<line x1="1455.241044" y1="990.000000" x2="1455.241044" y2="1020.000000" stroke="#ff0000" stroke-width="3.000000" />
<circle cx="1455.241044" cy="1005.000000" r="0.000000" fill="#ff0000" stroke="#ff0000" />
<line x1="1431.612012" y1="1005.000000" x2="1455.241044" y2="1005.000000" stroke="#ff0000" stroke-width="3.000000" />

<line x1="1431.612012" y1="1050.000000" x2="1434.746265" y2="1050.000000" stroke="#ff0000" stroke-width="3.000000" />
<text x="1439.746265" y="1054.000000" font-size="12" font-family="Arial;">Cactus_virus_X_KM288846.1</text>
<line x1="1431.612012" y1="1005.000000" x2="1431.612012" y2="1050.000000" stroke="#ff0000" stroke-width="3.000000" />
<circle cx="1431.612012" cy="1027.500000" r="0.000000" fill="#ff0000" stroke="#ff0000" />
<line x1="918.463947" y1="1027.500000" x2="1431.612012" y2="1027.500000" stroke="#31a354" stroke-width="3.000000" />

<line x1="1437.408459" y1="1070.000000" x2="1437.408459" y2="1070.000000" stroke="#ff0000" stroke-width="3.000000" />
<text x="1442.408459" y="1074.000000" font-size="12" font-family="Arial;">Schlumbergera_truncata_19JSF_sty__NC_002815</text>
<line x1="1457.972871" y1="1090.000000" x2="1461.413217" y2="1090.000000" stroke="#ff0000" stroke-width="3.000000" />
<text x="1466.413217" y="1094.000000" font-size="12" font-family="Arial;">Schlumbergera_truncata_15H06__cons</text>
<line x1="1457.972871" y1="1110.000000" x2="1461.062303" y2="1110.000000" stroke="#ff0000" stroke-width="3.000000" />
<text x="1466.062303" y="1114.000000" font-size="12" font-family="Arial;">Schlumbergera_truncata_15H04__cons</text>
<line x1="1457.972871" y1="1090.000000" x2="1457.972871" y2="1110.000000" stroke="#ff0000" stroke-width="3.000000" />
<circle cx="1457.972871" cy="1100.000000" r="0.000000" fill="#ff0000" stroke="#ff0000" />
<line x1="1437.408459" y1="1100.000000" x2="1457.972871" y2="1100.000000" stroke="#ff0000" stroke-width="3.000000" />

<line x1="1437.408459" y1="1070.000000" x2="1437.408459" y2="1100.000000" stroke="#ff0000" stroke-width="3.000000" />
<circle cx="1437.408459" cy="1085.000000" r="0.000000" fill="#ff0000" stroke="#ff0000" />
<line x1="1432.341086" y1="1085.000000" x2="1437.408459" y2="1085.000000" stroke="#ff0000" stroke-width="3.000000" />

<line x1="1432.341086" y1="1130.000000" x2="1463.175154" y2="1130.000000" stroke="#ff0000" stroke-width="3.000000" />
<text x="1468.175154" y="1134.000000" font-size="12" font-family="Arial;">Schlumbergera_truncata_15H03__cons</text>
<line x1="1432.341086" y1="1085.000000" x2="1432.341086" y2="1130.000000" stroke="#ff0000" stroke-width="3.000000" />
<circle cx="1432.341086" cy="1107.500000" r="0.000000" fill="#ff0000" stroke="#ff0000" />
<line x1="1403.931181" y1="1107.500000" x2="1432.341086" y2="1107.500000" stroke="#ff0000" stroke-width="3.000000" />

<line x1="1481.732236" y1="1150.000000" x2="1481.732236" y2="1150.000000" stroke="#ff0000" stroke-width="3.000000" />
<text x="1486.732236" y="1154.000000" font-size="12" font-family="Arial;">SRR11603189_RR-peel-3_NC_002815</text>
<line x1="1485.237861" y1="1170.000000" x2="1485.404338" y2="1170.000000" stroke="#ff0000" stroke-width="3.000000" />
<text x="1490.404338" y="1174.000000" font-size="12" font-family="Arial;">SRR11603190_RR-peel-2_NC_002815</text>
<line x1="1485.237861" y1="1190.000000" x2="1485.237861" y2="1190.000000" stroke="#ff0000" stroke-width="3.000000" />
<text x="1490.237861" y="1194.000000" font-size="12" font-family="Arial;">SRR11603186_RR-pulp-3_NC_002815</text>
<line x1="1485.237861" y1="1170.000000" x2="1485.237861" y2="1190.000000" stroke="#ff0000" stroke-width="3.000000" />
<circle cx="1485.237861" cy="1180.000000" r="0.000000" fill="#ff0000" stroke="#ff0000" />
<line x1="1483.064053" y1="1180.000000" x2="1485.237861" y2="1180.000000" stroke="#ff0000" stroke-width="3.000000" />

<line x1="1483.064053" y1="1210.000000" x2="1483.582693" y2="1210.000000" stroke="#ff0000" stroke-width="3.000000" />
<text x="1488.582693" y="1214.000000" font-size="12" font-family="Arial;">SRR11603191_RR-peel-1_NC_002815</text>
<line x1="1483.064053" y1="1180.000000" x2="1483.064053" y2="1210.000000" stroke="#ff0000" stroke-width="3.000000" />
<circle cx="1483.064053" cy="1195.000000" r="0.000000" fill="#ff0000" stroke="#ff0000" />
<line x1="1481.732236" y1="1195.000000" x2="1483.064053" y2="1195.000000" stroke="#ff0000" stroke-width="3.000000" />

<line x1="1481.732236" y1="1150.000000" x2="1481.732236" y2="1195.000000" stroke="#ff0000" stroke-width="3.000000" />
<circle cx="1481.732236" cy="1172.500000" r="0.000000" fill="#ff0000" stroke="#ff0000" />
<line x1="1466.185541" y1="1172.500000" x2="1481.732236" y2="1172.500000" stroke="#ff0000" stroke-width="3.000000" />

<line x1="1466.185541" y1="1230.000000" x2="1490.656244" y2="1230.000000" stroke="#ff0000" stroke-width="3.000000" />
<text x="1495.656244" y="1234.000000" font-size="12" font-family="Arial;">Cactus_virus_X_LC128411.1</text>
<line x1="1466.185541" y1="1172.500000" x2="1466.185541" y2="1230.000000" stroke="#ff0000" stroke-width="3.000000" />
<circle cx="1466.185541" cy="1201.250000" r="0.000000" fill="#ff0000" stroke="#ff0000" />
<line x1="1458.707835" y1="1201.250000" x2="1466.185541" y2="1201.250000" stroke="#ff0000" stroke-width="3.000000" />

<line x1="1458.707835" y1="1250.000000" x2="1458.707835" y2="1250.000000" stroke="#ff0000" stroke-width="3.000000" />
<text x="1463.707835" y="1254.000000" font-size="12" font-family="Arial;">SRR11603187_RR-pulp-2_NC_002815</text>
<line x1="1458.707835" y1="1201.250000" x2="1458.707835" y2="1250.000000" stroke="#ff0000" stroke-width="3.000000" />
<circle cx="1458.707835" cy="1225.625000" r="0.000000" fill="#ff0000" stroke="#ff0000" />
<line x1="1433.980438" y1="1225.625000" x2="1458.707835" y2="1225.625000" stroke="#ff0000" stroke-width="3.000000" />

<line x1="1462.499609" y1="1270.000000" x2="1462.499609" y2="1270.000000" stroke="#ff0000" stroke-width="3.000000" />
<text x="1467.499609" y="1274.000000" font-size="12" font-family="Arial;">SRR11190792_Plant_BR-3_NC_002815</text>
<line x1="1462.499609" y1="1290.000000" x2="1492.133441" y2="1290.000000" stroke="#ff0000" stroke-width="3.000000" />
<text x="1497.133441" y="1294.000000" font-size="12" font-family="Arial;">SRR11190793_Plant_BR-2_NC_002815</text>
<line x1="1462.499609" y1="1270.000000" x2="1462.499609" y2="1290.000000" stroke="#ff0000" stroke-width="3.000000" />
<circle cx="1462.499609" cy="1280.000000" r="0.000000" fill="#ff0000" stroke="#ff0000" />
<line x1="1451.172342" y1="1280.000000" x2="1462.499609" y2="1280.000000" stroke="#ff0000" stroke-width="3.000000" />

<line x1="1451.172342" y1="1310.000000" x2="1519.537631" y2="1310.000000" stroke="#ff0000" stroke-width="3.000000" />
<text x="1524.537631" y="1314.000000" font-size="12" font-family="Arial;">Cactus_virus_X_AF308158.2</text>
<line x1="1451.172342" y1="1280.000000" x2="1451.172342" y2="1310.000000" stroke="#ff0000" stroke-width="3.000000" />
<circle cx="1451.172342" cy="1295.000000" r="0.000000" fill="#ff0000" stroke="#ff0000" />
<line x1="1439.128680" y1="1295.000000" x2="1451.172342" y2="1295.000000" stroke="#ff0000" stroke-width="3.000000" />

<line x1="1440.687803" y1="1330.000000" x2="1484.119070" y2="1330.000000" stroke="#ff0000" stroke-width="3.000000" />
<text x="1489.119070" y="1334.000000" font-size="12" font-family="Arial;">Cactus_virus_X_KM365479.1</text>
<line x1="1442.074045" y1="1350.000000" x2="1456.355865" y2="1350.000000" stroke="#ff0000" stroke-width="3.000000" />
<text x="1461.355865" y="1354.000000" font-size="12" font-family="Arial;">SRR11190795_Plant_FR-3_NC_002815</text>
<line x1="1449.390845" y1="1370.000000" x2="1449.390845" y2="1370.000000" stroke="#ff0000" stroke-width="3.000000" />
<text x="1454.390845" y="1374.000000" font-size="12" font-family="Arial;">SRR11603183_GW-peel-2_NC_002815</text>
<line x1="1454.465005" y1="1390.000000" x2="1459.873880" y2="1390.000000" stroke="#ff0000" stroke-width="3.000000" />
<text x="1464.873880" y="1394.000000" font-size="12" font-family="Arial;">SRR11603184_GW-peel-1_NC_002815</text>
<line x1="1459.484932" y1="1410.000000" x2="1459.728244" y2="1410.000000" stroke="#ff0000" stroke-width="3.000000" />
<text x="1464.728244" y="1414.000000" font-size="12" font-family="Arial;">SRR11190801_Plant_DH-2_NC_002815</text>
<line x1="1459.484932" y1="1430.000000" x2="1459.484932" y2="1430.000000" stroke="#ff0000" stroke-width="3.000000" />
<text x="1464.484932" y="1434.000000" font-size="12" font-family="Arial;">SRR11190798_Plant_DH-3_NC_002815</text>
<line x1="1459.484932" y1="1410.000000" x2="1459.484932" y2="1430.000000" stroke="#ff0000" stroke-width="3.000000" />
<circle cx="1459.484932" cy="1420.000000" r="0.000000" fill="#ff0000" stroke="#ff0000" />
<line x1="1457.205475" y1="1420.000000" x2="1459.484932" y2="1420.000000" stroke="#ff0000" stroke-width="3.000000" />

<line x1="1479.482617" y1="1450.000000" x2="1479.482617" y2="1450.000000" stroke="#ff0000" stroke-width="3.000000" />
<text x="1484.482617" y="1454.000000" font-size="12" font-family="Arial;">SRR11190799_Plant_BSJ-3_NC_002815</text>
<line x1="1480.122914" y1="1470.000000" x2="1480.122914" y2="1470.000000" stroke="#ff0000" stroke-width="3.000000" />
<text x="1485.122914" y="1474.000000" font-size="12" font-family="Arial;">SRR11190800_Plant_BSJ-2_NC_002815</text>
<line x1="1480.122914" y1="1490.000000" x2="1480.491084" y2="1490.000000" stroke="#ff0000" stroke-width="3.000000" />
<text x="1485.491084" y="1494.000000" font-size="12" font-family="Arial;">SRR11190791_Plant_BSJ-1_NC_002815</text>
<line x1="1480.122914" y1="1470.000000" x2="1480.122914" y2="1490.000000" stroke="#ff0000" stroke-width="3.000000" />
<circle cx="1480.122914" cy="1480.000000" r="0.000000" fill="#ff0000" stroke="#ff0000" />
<line x1="1479.482617" y1="1480.000000" x2="1480.122914" y2="1480.000000" stroke="#ff0000" stroke-width="3.000000" />

<line x1="1479.482617" y1="1450.000000" x2="1479.482617" y2="1480.000000" stroke="#ff0000" stroke-width="3.000000" />
<circle cx="1479.482617" cy="1465.000000" r="0.000000" fill="#ff0000" stroke="#ff0000" />
<line x1="1457.205475" y1="1465.000000" x2="1479.482617" y2="1465.000000" stroke="#ff0000" stroke-width="3.000000" />

<line x1="1457.205475" y1="1420.000000" x2="1457.205475" y2="1465.000000" stroke="#ff0000" stroke-width="3.000000" />
<circle cx="1457.205475" cy="1442.500000" r="0.000000" fill="#ff0000" stroke="#ff0000" />
<line x1="1455.796822" y1="1442.500000" x2="1457.205475" y2="1442.500000" stroke="#ff0000" stroke-width="3.000000" />

<line x1="1455.796822" y1="1510.000000" x2="1468.643513" y2="1510.000000" stroke="#ff0000" stroke-width="3.000000" />
<text x="1473.643513" y="1514.000000" font-size="12" font-family="Arial;">SRR11603182_GW-peel-3_NC_002815</text>
<line x1="1455.796822" y1="1442.500000" x2="1455.796822" y2="1510.000000" stroke="#ff0000" stroke-width="3.000000" />
<circle cx="1455.796822" cy="1476.250000" r="0.000000" fill="#ff0000" stroke="#ff0000" />
<line x1="1454.465005" y1="1476.250000" x2="1455.796822" y2="1476.250000" stroke="#ff0000" stroke-width="3.000000" />

<line x1="1454.465005" y1="1390.000000" x2="1454.465005" y2="1476.250000" stroke="#ff0000" stroke-width="3.000000" />
<circle cx="1454.465005" cy="1433.125000" r="0.000000" fill="#ff0000" stroke="#ff0000" />
<line x1="1449.390845" y1="1433.125000" x2="1454.465005" y2="1433.125000" stroke="#ff0000" stroke-width="3.000000" />

<line x1="1449.390845" y1="1370.000000" x2="1449.390845" y2="1433.125000" stroke="#ff0000" stroke-width="3.000000" />
<circle cx="1449.390845" cy="1401.562500" r="0.000000" fill="#ff0000" stroke="#ff0000" />
<line x1="1444.484763" y1="1401.562500" x2="1449.390845" y2="1401.562500" stroke="#ff0000" stroke-width="3.000000" />

<line x1="1444.484763" y1="1530.000000" x2="1447.202822" y2="1530.000000" stroke="#ff0000" stroke-width="3.000000" />
<text x="1452.202822" y="1534.000000" font-size="12" font-family="Arial;">SRR11190802_Plant_DH-1_NC_002815</text>
<line x1="1444.484763" y1="1401.562500" x2="1444.484763" y2="1530.000000" stroke="#ff0000" stroke-width="3.000000" />
<circle cx="1444.484763" cy="1465.781250" r="0.000000" fill="#ff0000" stroke="#ff0000" />
<line x1="1442.800782" y1="1465.781250" x2="1444.484763" y2="1465.781250" stroke="#ff0000" stroke-width="3.000000" />

<line x1="1447.372117" y1="1550.000000" x2="1447.372117" y2="1550.000000" stroke="#ff0000" stroke-width="3.000000" />
<text x="1452.372117" y="1554.000000" font-size="12" font-family="Arial;">SRR11190797_Plant_FR-1_NC_002815</text>
<line x1="1447.372117" y1="1570.000000" x2="1451.423531" y2="1570.000000" stroke="#ff0000" stroke-width="3.000000" />
<text x="1456.423531" y="1574.000000" font-size="12" font-family="Arial;">SRR11190796_Plant_FR-2_NC_002815</text>
<line x1="1447.372117" y1="1550.000000" x2="1447.372117" y2="1570.000000" stroke="#ff0000" stroke-width="3.000000" />
<circle cx="1447.372117" cy="1560.000000" r="0.000000" fill="#ff0000" stroke="#ff0000" />
<line x1="1442.800782" y1="1560.000000" x2="1447.372117" y2="1560.000000" stroke="#ff0000" stroke-width="3.000000" />

<line x1="1442.800782" y1="1465.781250" x2="1442.800782" y2="1560.000000" stroke="#ff0000" stroke-width="3.000000" />
<circle cx="1442.800782" cy="1512.890625" r="0.000000" fill="#ff0000" stroke="#ff0000" />
<line x1="1442.074045" y1="1512.890625" x2="1442.800782" y2="1512.890625" stroke="#ff0000" stroke-width="3.000000" />

<line x1="1442.074045" y1="1350.000000" x2="1442.074045" y2="1512.890625" stroke="#ff0000" stroke-width="3.000000" />
<circle cx="1442.074045" cy="1431.445312" r="0.000000" fill="#ff0000" stroke="#ff0000" />
<line x1="1440.687803" y1="1431.445312" x2="1442.074045" y2="1431.445312" stroke="#ff0000" stroke-width="3.000000" />

<line x1="1440.687803" y1="1330.000000" x2="1440.687803" y2="1431.445312" stroke="#ff0000" stroke-width="3.000000" />
<circle cx="1440.687803" cy="1380.722656" r="0.000000" fill="#ff0000" stroke="#ff0000" />
<line x1="1439.128680" y1="1380.722656" x2="1440.687803" y2="1380.722656" stroke="#ff0000" stroke-width="3.000000" />

<line x1="1439.128680" y1="1295.000000" x2="1439.128680" y2="1380.722656" stroke="#ff0000" stroke-width="3.000000" />
<circle cx="1439.128680" cy="1337.861328" r="0.000000" fill="#ff0000" stroke="#ff0000" />
<line x1="1433.980438" y1="1337.861328" x2="1439.128680" y2="1337.861328" stroke="#ff0000" stroke-width="3.000000" />

<line x1="1433.980438" y1="1225.625000" x2="1433.980438" y2="1337.861328" stroke="#ff0000" stroke-width="3.000000" />
<circle cx="1433.980438" cy="1281.743164" r="0.000000" fill="#ff0000" stroke="#ff0000" />
<line x1="1403.931181" y1="1281.743164" x2="1433.980438" y2="1281.743164" stroke="#ff0000" stroke-width="3.000000" />

<line x1="1403.931181" y1="1107.500000" x2="1403.931181" y2="1281.743164" stroke="#ff0000" stroke-width="3.000000" />
<circle cx="1403.931181" cy="1194.621582" r="0.000000" fill="#ff0000" stroke="#ff0000" />
<line x1="918.463947" y1="1194.621582" x2="1403.931181" y2="1194.621582" stroke="#31a354" stroke-width="3.000000" />

<line x1="918.463947" y1="1027.500000" x2="918.463947" y2="1194.621582" stroke="#31a354" stroke-width="3.000000" />
<circle cx="918.463947" cy="1111.060791" r="0.000000" fill="#31a354" stroke="#31a354" />
<line x1="676.295473" y1="1111.060791" x2="918.463947" y2="1111.060791" stroke="#31a354" stroke-width="3.000000" />

<line x1="676.295473" y1="943.471680" x2="676.295473" y2="1111.060791" stroke="#31a354" stroke-width="3.000000" />
<circle cx="676.295473" cy="1027.266235" r="0.000000" fill="#31a354" stroke="#31a354" />
<line x1="319.633415" y1="1027.266235" x2="676.295473" y2="1027.266235" stroke="#31a354" stroke-width="3.000000" />

<line x1="319.633415" y1="628.945312" x2="319.633415" y2="1027.266235" stroke="#31a354" stroke-width="3.000000" />
<circle cx="319.633415" cy="828.105774" r="0.000000" fill="#31a354" stroke="#31a354" />
<line x1="254.164573" y1="828.105774" x2="319.633415" y2="828.105774" stroke="#31a354" stroke-width="3.000000" />

<line x1="254.164573" y1="169.609375" x2="254.164573" y2="828.105774" stroke="#31a354" stroke-width="3.000000" />
<circle cx="254.164573" cy="498.857574" r="0.000000" fill="#31a354" stroke="#31a354" />
<line x1="20.000000" y1="498.857574" x2="254.164573" y2="498.857574" stroke="#31a354" stroke-width="3.000000" />

<line x1="20.000000" y1="55.000000" x2="20.000000" y2="498.857574" stroke="#31a354" stroke-width="3.000000" />
<circle cx="20.000000" cy="276.928787" r="0.000000" fill="#31a354" stroke="#31a354" />
</svg>
